<?xml version="1.0" standalone="no"?>
<!DOCTYPE svg PUBLIC "-//W3C//DTD SVG 20010904//EN"
 "http://www.w3.org/TR/2001/REC-SVG-20010904/DTD/svg10.dtd">
<svg version="1.0" xmlns="http://www.w3.org/2000/svg"
 width="512.000000pt" height="512.000000pt" viewBox="0 0 512.000000 512.000000"
 preserveAspectRatio="xMidYMid meet">

<g transform="translate(0.000000,512.000000) scale(0.100000,-0.100000)"
fill="#000000" stroke="none">
<path d="M1068 4081 l-33 -29 -3 -869 c-2 -477 0 -887 3 -911 4 -23 17 -55 30
-70 l23 -27 321 -3 321 -3 0 -114 0 -115 -55 0 -55 0 0 -70 0 -70 940 0 940 0
0 70 0 70 -55 0 -55 0 0 115 0 115 318 0 c309 0 319 1 341 21 12 11 26 32 32
46 13 36 12 1771 -2 1811 -23 67 93 62 -1518 62 l-1461 0 -32 -29z m2876 -87
c9 -8 18 -25 21 -37 3 -12 4 -388 3 -835 l-3 -814 -24 -19 c-23 -18 -59 -19
-1381 -19 -1322 0 -1358 1 -1381 19 l-24 19 -3 804 c-2 441 0 817 3 835 12 68
-106 63 1405 63 1230 0 1370 -2 1384 -16z"/>
<path d="M1383 1670 c-204 -3 -373 -7 -376 -10 -24 -27 -27 -70 -27 -379 0
-230 4 -338 12 -356 7 -16 24 -29 47 -36 24 -7 527 -9 1549 -7 l1514 3 19 24
c18 22 19 43 19 371 0 328 -1 349 -19 371 l-19 24 -1174 0 c-645 0 -1340 -2
-1545 -5z m-43 -195 l0 -65 -60 0 -60 0 0 65 0 65 60 0 60 0 0 -65z m285 0 l0
-60 -62 -3 -63 -3 0 59 c0 32 3 62 7 66 4 4 32 6 63 4 l55 -3 0 -60z m285 0
l0 -65 -60 0 -60 0 0 65 0 65 60 0 60 0 0 -65z m285 0 l0 -60 -62 -3 -63 -3 0
59 c0 32 3 62 7 66 4 4 32 6 63 4 l55 -3 0 -60z m285 0 l0 -65 -60 0 -60 0 0
65 0 65 60 0 60 0 0 -65z m280 -5 l0 -61 -57 3 -58 3 -3 58 -3 57 61 0 60 0 0
-60z m288 3 l-3 -58 -57 -3 -58 -3 0 61 0 60 60 0 61 0 -3 -57z m282 -3 l0
-60 -60 0 -60 0 0 60 0 60 60 0 60 0 0 -60z m288 3 l-3 -58 -57 -3 -58 -3 0
61 0 60 60 0 61 0 -3 -57z m282 -3 l0 -60 -60 0 -60 0 0 60 0 60 60 0 60 0 0
-60z m-2395 -185 l0 -60 -62 -3 -63 -3 0 59 c0 32 3 62 7 66 4 4 32 6 63 4
l55 -3 0 -60z m285 0 l0 -65 -60 0 -60 0 0 65 0 65 60 0 60 0 0 -65z m280 0
l0 -65 -60 0 -60 0 0 65 0 65 60 0 60 0 0 -65z m290 0 l0 -65 -60 0 -60 0 0
65 0 65 60 0 60 0 0 -65z m280 0 l0 -65 -60 0 -60 0 0 65 0 65 60 0 60 0 0
-65z m288 -2 l-3 -58 -57 -3 -58 -3 0 61 0 60 60 0 61 0 -3 -57z m282 -3 l0
-60 -60 0 -60 0 0 60 0 60 60 0 60 0 0 -60z m280 0 l0 -60 -55 0 -55 0 0 60 0
60 55 0 55 0 0 -60z m290 0 l0 -60 -60 0 -60 0 0 60 0 60 60 0 60 0 0 -60z
m-2440 -200 l0 -60 -60 0 -60 0 0 60 0 60 60 0 60 0 0 -60z m290 0 l0 -60 -65
0 -65 0 0 60 0 60 65 0 65 0 0 -60z m280 0 l0 -60 -60 0 -60 0 0 60 0 60 60 0
60 0 0 -60z m1140 0 l0 -60 -490 0 -490 0 0 60 0 60 490 0 490 0 0 -60z m280
0 l0 -60 -60 0 -60 0 0 60 0 60 60 0 60 0 0 -60z m288 -2 l3 -58 -61 0 -60 0
0 60 0 61 58 -3 57 -3 3 -57z m282 2 l0 -60 -60 0 -60 0 0 60 0 60 60 0 60 0
0 -60z"/>
</g>
</svg>
