<?xml version="1.0" standalone="no"?>
<!DOCTYPE svg PUBLIC "-//W3C//DTD SVG 20010904//EN"
 "http://www.w3.org/TR/2001/REC-SVG-20010904/DTD/svg10.dtd">
<svg version="1.0" xmlns="http://www.w3.org/2000/svg"
 width="462.000000pt" height="436.000000pt" viewBox="0 0 462.000000 436.000000"
 preserveAspectRatio="xMidYMid meet">

<g transform="translate(0.000000,436.000000) scale(0.100000,-0.100000)"
fill="#000000" stroke="none">
<path d="M345 3670 c-187 -4 -341 -8 -343 -9 -1 0 -2 -510 -2 -1132 0 -1104 1
-1130 19 -1124 11 3 22 2 25 -4 3 -5 -5 -12 -19 -15 l-25 -6 0 -228 c0 -169 3
-232 13 -241 10 -11 10 -13 0 -7 -10 6 -13 -73 -13 -379 l0 -386 28 14 c15 8
118 58 229 112 173 84 201 101 190 113 -10 13 -9 14 9 4 17 -9 39 -2 133 44
62 30 115 54 117 54 2 0 4 -6 4 -14 0 -13 -22 -26 -43 -26 -4 1 -15 -6 -24
-15 -8 -9 -23 -13 -31 -10 -9 3 -13 3 -10 -1 6 -6 -295 -159 -509 -260 l-93
-43 0 -55 0 -56 2310 0 2311 0 -3 131 -3 132 -195 89 c-199 90 -294 135 -552
256 -120 57 -149 75 -162 101 -22 42 -52 56 -113 52 -29 -1 -63 3 -75 10 -23
12 -22 12 12 25 49 17 92 17 118 -2 25 -17 26 -15 37 51 3 22 44 193 90 380
117 471 171 785 182 1056 6 159 5 168 -16 213 -13 26 -38 58 -57 72 -106 82
-541 204 -810 228 l-61 5 -7 -49 c-8 -59 8 -96 56 -134 l33 -25 -30 -31 c-89
-93 -272 -158 -327 -116 -13 10 -18 27 -18 65 0 44 3 51 20 51 11 0 20 6 20
13 0 8 17 19 38 25 52 16 162 113 190 166 13 27 24 70 27 108 l4 63 -10 -47
c-6 -27 -17 -48 -23 -48 -7 0 -18 -12 -25 -27 -10 -21 -14 -24 -21 -13 -10 17
-12 15 -34 -28 -10 -19 -20 -32 -23 -29 -2 3 -17 -8 -33 -25 -34 -35 -73 -36
-78 -1 -2 16 -13 25 -35 31 -54 14 -43 30 28 37 45 5 70 4 78 -4 17 -17 27
-13 27 12 0 29 -18 47 -46 47 -13 0 -26 5 -29 10 -3 6 -17 10 -29 10 -13 0
-35 9 -49 20 -14 11 -30 20 -36 20 -8 0 -7 8 3 23 7 12 16 45 20 72 5 41 3 54
-11 66 -10 9 -26 26 -36 39 -16 19 -26 22 -68 18 -38 -4 -47 -2 -39 7 6 7 8
19 5 26 -2 8 8 29 24 48 29 35 30 35 80 6 17 -9 31 -11 48 -4 18 7 27 4 40
-11 10 -11 40 -27 68 -37 l50 -16 -30 -10 c-28 -9 -44 -23 -45 -38 0 -3 38 -5
84 -5 47 1 82 4 78 7 -4 3 -20 15 -35 27 l-29 21 26 7 c14 3 26 10 26 15 0 5
7 6 15 3 8 -4 22 -1 30 6 23 19 43 -42 37 -117 -5 -72 2 -81 18 -23 6 23 21
47 35 56 16 10 25 26 25 41 0 14 8 38 17 53 14 24 15 33 4 56 -9 20 -9 29 -1
34 27 17 -62 217 -107 241 -12 7 -20 16 -17 21 3 4 4 8 2 8 -2 0 -41 7 -88 14
-53 9 -93 11 -108 5 -30 -11 -35 -11 -27 1 3 6 0 10 -7 10 -7 0 -19 -9 -26
-20 -13 -21 -38 -27 -44 -10 -5 15 -149 -58 -155 -79 -2 -10 -24 -27 -48 -39
-71 -34 -119 -136 -79 -167 7 -5 24 -44 38 -85 20 -62 22 -77 11 -86 -15 -12
-9 -53 19 -116 9 -21 16 -46 16 -56 0 -11 6 -25 14 -31 8 -6 17 -31 20 -55 4
-24 20 -64 36 -90 28 -44 29 -50 19 -91 l-11 -45 -87 0 c-65 0 -92 -4 -112
-18 -126 -82 -170 -113 -203 -143 -50 -45 -185 -138 -264 -185 -35 -20 -66
-43 -69 -50 -3 -8 13 -47 36 -88 41 -76 50 -106 30 -106 -6 0 -67 -27 -135
-60 -182 -88 -183 -89 -449 -141 -60 -12 -151 -34 -201 -50 l-90 -29 -35 -127
c-29 -106 -39 -130 -59 -140 -13 -6 -28 -10 -32 -7 -4 3 -8 95 -8 206 0 169 2
199 14 195 8 -3 27 -2 43 3 15 4 46 14 68 21 57 17 185 79 185 89 0 5 -28 -5
-62 -22 -35 -17 -69 -31 -76 -31 -7 0 -49 17 -92 38 l-78 38 -6 76 c-3 42 -11
416 -17 831 -6 415 -14 758 -18 762 -12 12 -179 15 -516 8z m2178 -647 c-2 -6
5 -14 16 -18 12 -3 21 -10 21 -16 0 -5 8 -8 18 -7 9 1 34 0 56 0 37 -2 38 -3
30 -29 -4 -16 -7 -42 -7 -60 1 -28 -3 -33 -33 -43 -28 -9 -37 -9 -49 4 -8 8
-15 19 -15 24 0 13 -36 53 -42 47 -3 -3 -6 30 -6 72 -1 50 2 71 7 58 5 -11 6
-25 4 -32z m80 40 c-7 -2 -19 -2 -25 0 -7 3 -2 5 12 5 14 0 19 -2 13 -5z m48
-36 c-10 -9 -11 -8 -5 6 3 10 9 15 12 12 3 -3 0 -11 -7 -18z m154 -218 c14 -5
6 -8 -30 -8 -27 0 -57 3 -65 9 -18 11 66 11 95 -1z m-160 -59 c3 -5 1 -10 -4
-10 -6 0 -11 5 -11 10 0 6 2 10 4 10 3 0 8 -4 11 -10z m45 -24 c0 -3 -4 -8
-10 -11 -5 -3 -10 -1 -10 4 0 6 5 11 10 11 6 0 10 -2 10 -4z m23 -749 c-3 -15
-11 -26 -17 -24 -10 4 -11 26 0 56 8 25 23 -2 17 -32z m-699 -32 c42 -40 64
-54 80 -50 11 2 43 7 69 10 l48 6 -7 -88 c-5 -74 -3 -99 15 -156 l21 -69 -26
-53 c-28 -59 -44 -70 -89 -55 -28 9 -27 10 10 5 35 -4 37 -3 18 7 -13 6 -23
17 -23 24 0 28 -73 46 -225 55 l-150 9 -216 103 -216 102 81 12 c84 12 175 43
406 136 74 30 137 55 140 56 3 0 31 -24 64 -54z m784 49 c15 -4 22 -14 22 -30
0 -30 -17 -40 -25 -15 -3 11 -12 22 -20 25 -18 7 -20 -5 -3 -22 13 -13 5 -15
-29 -6 -19 5 -20 9 -11 30 11 25 26 28 66 18z m118 -52 c3 -7 4 -16 0 -19 -10
-10 -36 18 -36 39 0 10 -4 16 -10 13 -5 -3 -10 -15 -10 -26 0 -10 -7 -19 -15
-19 -29 0 -16 36 20 56 20 11 25 7 51 -44z m24 18 c0 -5 -2 -10 -4 -10 -3 0
-8 5 -11 10 -3 6 -1 10 4 10 6 0 11 -4 11 -10z m222 -185 c64 -32 118 -82 118
-108 0 -23 -73 -158 -124 -232 -19 -27 -48 -75 -64 -105 -38 -70 -61 -90 -149
-133 -40 -19 -85 -44 -100 -55 -40 -27 -238 -130 -297 -154 -27 -10 -68 -28
-91 -38 -23 -10 -66 -29 -96 -40 -61 -24 -138 -70 -187 -112 -47 -40 -94 -62
-201 -92 -90 -25 -97 -29 -175 -102 -97 -91 -150 -128 -171 -120 -28 11 -15
39 52 110 106 113 123 133 123 139 0 4 -10 13 -23 21 -20 14 -28 13 -87 -9
-36 -13 -103 -39 -149 -59 -91 -39 -121 -40 -121 -1 0 20 15 32 83 70 45 25
93 55 107 66 37 31 -149 -69 -192 -102 -44 -35 -66 -37 -77 -6 -11 30 -7 37
50 77 28 19 72 52 99 72 26 21 58 42 71 47 22 9 23 10 3 10 -11 1 -58 -21
-104 -49 -46 -27 -86 -50 -90 -50 -4 0 -13 -7 -20 -15 -10 -12 -16 -13 -26 -4
-23 19 -16 33 34 70 26 19 61 44 77 57 47 35 97 59 137 66 21 4 57 16 80 26
42 19 43 20 13 21 -16 1 -37 1 -46 0 -26 -3 -120 25 -117 34 2 5 66 10 143 11
123 1 148 -1 212 -22 82 -27 119 -29 183 -10 58 17 274 126 319 160 19 14 40
26 46 26 16 0 86 39 126 71 20 16 39 26 43 22 3 -3 6 -1 6 6 0 28 117 119 222
172 78 39 118 70 118 90 0 5 -4 7 -10 4 -5 -3 -10 0 -11 7 -1 7 -5 2 -10 -12
-7 -21 -8 -19 -4 10 7 50 72 176 98 189 34 17 120 5 179 -24z m-1016 -336 c13
-22 -12 -26 -51 -9 l-40 19 42 0 c23 1 45 -4 49 -10z"/>
<path d="M1615 935 l-30 -14 30 6 c17 3 41 10 55 14 l25 7 -25 1 c-14 0 -38
-6 -55 -14z"/>
<path d="M2795 3043 c11 -45 21 -48 58 -20 24 18 37 23 45 15 6 -6 16 -8 24
-6 23 8 -49 38 -93 38 -40 0 -41 -1 -34 -27z m45 -17 c0 -5 -7 -3 -15 4 -8 7
-12 17 -9 22 7 10 24 -9 24 -26z"/>
<path d="M2758 2883 c7 -3 16 -2 19 1 4 3 -2 6 -13 5 -11 0 -14 -3 -6 -6z"/>
</g>
</svg>
